<svg fill="none" height="30" viewBox="0 0 181 30" width="181" xmlns="http://www.w3.org/2000/svg"><path d="m32.16 23v-15.744h1.992v14.04h6.888v1.704zm15.4466.288c-.784 0-1.52-.136-2.208-.408-.672-.288-1.264-.688-1.776-1.2-.496-.528-.888-1.168-1.176-1.92s-.432-1.608-.432-2.568.144-1.816.432-2.568c.304-.768.696-1.416 1.176-1.944.496-.528 1.056-.928 1.68-1.2.624-.288 1.272-.432 1.944-.432.736 0 1.392.128 1.968.384.592.256 1.08.624 1.464 1.104.4.48.704 1.056.912 1.728s.312 1.424.312 2.256c0 .208-.008.416-.024.624 0 .192-.016.36-.048.504h-7.872c.08 1.248.464 2.24 1.152 2.976.704.72 1.616 1.08 2.736 1.08.56 0 1.072-.08 1.536-.24.48-.176.936-.4 1.368-.672l.696 1.296c-.512.32-1.08.6-1.704.84s-1.336.36-2.136.36zm-3.672-7.056h6.24c0-1.184-.256-2.08-.768-2.688-.496-.624-1.2-.936-2.112-.936-.416 0-.816.08-1.2.24-.368.16-.704.4-1.008.72-.304.304-.56.68-.768 1.128-.192.448-.32.96-.384 1.536zm14.0719 12.144c-.72 0-1.376-.072-1.968-.216-.592-.128-1.104-.328-1.536-.6-.416-.272-.744-.6-.984-.984-.224-.384-.336-.832-.336-1.344 0-.496.152-.968.456-1.416s.72-.856 1.248-1.224v-.096c-.288-.176-.536-.416-.744-.72-.192-.32-.288-.712-.288-1.176 0-.496.136-.928.408-1.296s.56-.656.864-.864v-.096c-.384-.32-.736-.744-1.056-1.272-.304-.544-.456-1.168-.456-1.872 0-.64.112-1.216.336-1.728.24-.512.56-.944.96-1.296.4-.368.864-.648 1.392-.84.544-.192 1.112-.288 1.704-.288.32 0 .616.032.888.096.288.048.544.112.768.192h4.056v1.512h-2.4c.272.272.496.616.672 1.032.192.416.288.872.288 1.368 0 .624-.112 1.192-.336 1.704-.224.496-.528.92-.912 1.272-.384.336-.84.6-1.368.792-.512.192-1.064.288-1.656.288-.288 0-.584-.032-.888-.096-.304-.08-.592-.184-.864-.312-.208.176-.384.376-.528.6-.144.208-.216.472-.216.792 0 .368.144.672.432.912s.832.36 1.632.36h2.256c1.36 0 2.376.224 3.048.672.688.432 1.032 1.136 1.032 2.112 0 .544-.136 1.056-.408 1.536-.272.496-.664.928-1.176 1.296s-1.136.656-1.872.864c-.72.224-1.536.336-2.448.336zm0-10.392c.336 0 .648-.064.936-.192.304-.128.568-.312.792-.552.24-.24.424-.528.552-.864.128-.352.192-.744.192-1.176 0-.864-.24-1.528-.72-1.992-.48-.48-1.064-.72-1.752-.72s-1.272.24-1.752.72c-.48.464-.72 1.128-.72 1.992 0 .432.064.824.192 1.176.128.336.304.624.528.864.24.24.504.424.792.552.304.128.624.192.96.192zm.288 9.024c.56 0 1.064-.072 1.512-.216.464-.128.856-.304 1.176-.528.32-.208.568-.456.744-.744s.264-.584.264-.888c0-.544-.2-.92-.6-1.128s-.984-.312-1.752-.312h-2.016c-.224 0-.472-.016-.744-.048-.256-.016-.512-.064-.768-.144-.416.304-.72.624-.912.96s-.288.672-.288 1.008c0 .624.296 1.12.888 1.488.608.368 1.44.552 2.496.552zm9.7028-3.72c-.976 0-1.792-.288-2.448-.864-.64-.576-.96-1.392-.96-2.448 0-1.28.568-2.256 1.704-2.928 1.136-.688 2.952-1.168 5.448-1.44 0-.368-.04-.728-.12-1.08-.064-.352-.184-.664-.36-.936s-.424-.488-.744-.648c-.304-.176-.696-.264-1.176-.264-.672 0-1.304.128-1.896.384s-1.12.544-1.584.864l-.768-1.368c.544-.352 1.208-.688 1.992-1.008.784-.336 1.648-.504 2.592-.504 1.424 0 2.456.44 3.096 1.32.64.864.96 2.024.96 3.48v7.152h-1.632l-.168-1.392h-.072c-.56.464-1.16.864-1.8 1.2-.64.32-1.328.48-2.064.48zm.576-1.584c.56 0 1.088-.128 1.584-.384.496-.272 1.024-.664 1.584-1.176v-3.24c-.976.128-1.8.28-2.472.456-.656.176-1.192.384-1.608.624-.4.24-.696.52-.888.84-.176.304-.264.64-.264 1.008 0 .672.2 1.152.6 1.44s.888.432 1.464.432zm10.4377 1.584c-.752 0-1.288-.224-1.608-.672s-.48-1.104-.48-1.968v-14.736h1.968v14.88c0 .32.056.544.168.672s.24.192.384.192h.168c.064 0 .152-.016.264-.048l.264 1.488c-.128.064-.28.112-.456.144s-.4.048-.672.048zm7.0052-.288v-14.064h-4.752v-1.68h11.52v1.68h-4.752v14.064zm12.0654.288c-.784 0-1.52-.136-2.208-.408-.672-.288-1.264-.688-1.776-1.2-.496-.528-.888-1.168-1.176-1.92s-.432-1.608-.432-2.568.144-1.816.432-2.568c.304-.768.696-1.416 1.176-1.944.496-.528 1.056-.928 1.68-1.2.624-.288 1.272-.432 1.944-.432.736 0 1.392.128 1.968.384.5924.256 1.0804.624 1.4644 1.104.4.48.704 1.056.912 1.728s.312 1.424.312 2.256c0 .208-.008.416-.024.624 0 .192-.016.36-.048.504h-7.8724c.08 1.248.464 2.24 1.152 2.976.704.72 1.616 1.08 2.736 1.08.56 0 1.072-.08 1.536-.24.4804-.176.9364-.4 1.3684-.672l.696 1.296c-.512.32-1.08.6-1.704.84-.6244.24-1.3364.36-2.1364.36zm-3.672-7.056h6.2404c0-1.184-.256-2.08-.7684-2.688-.496-.624-1.2-.936-2.112-.936-.416 0-.816.08-1.2.24-.368.16-.704.4-1.008.72-.304.304-.56.68-.768 1.128-.192.448-.32.96-.384 1.536zm10.3704 6.768v-11.664h1.632l.168 1.68h.072c.512-.56 1.064-1.024 1.656-1.392.608-.384 1.264-.576 1.968-.576.896 0 1.592.2 2.088.6.512.384.888.928 1.128 1.632.608-.672 1.216-1.208 1.824-1.608.624-.416 1.296-.624 2.016-.624 1.2 0 2.088.384 2.664 1.152.592.768.888 1.904.888 3.408v7.392h-1.968v-7.128c0-1.104-.176-1.896-.528-2.376-.352-.496-.896-.744-1.632-.744-.88 0-1.856.6-2.928 1.8v8.448h-1.968v-7.128c0-1.104-.176-1.896-.528-2.376-.352-.496-.904-.744-1.656-.744-.88 0-1.856.6-2.928 1.8v8.448zm19.418 4.92v-16.584h1.632l.168 1.344h.072c.528-.448 1.104-.832 1.728-1.152.64-.32 1.304-.48 1.992-.48.752 0 1.416.144 1.992.432.576.272 1.056.672 1.44 1.2.384.512.672 1.136.864 1.872.208.72.312 1.536.312 2.448 0 .992-.136 1.88-.408 2.664-.272.768-.64 1.424-1.104 1.968s-1 .96-1.608 1.248c-.608.272-1.248.408-1.92.408-.544 0-1.088-.12-1.632-.36-.528-.24-1.064-.568-1.608-.984l.048 2.04v3.936zm4.824-6.288c.48 0 .92-.104 1.32-.312.416-.224.768-.528 1.056-.912.304-.4.536-.888.696-1.464.176-.576.264-1.224.264-1.944 0-.64-.056-1.224-.168-1.752s-.296-.976-.552-1.344c-.24-.384-.56-.68-.96-.888-.384-.208-.848-.312-1.392-.312-.496 0-1 .136-1.512.408-.496.272-1.032.664-1.608 1.176v6.12c.528.448 1.04.768 1.536.96.496.176.936.264 1.32.264zm10.097 1.656c-.752 0-1.288-.224-1.608-.672s-.48-1.104-.48-1.968v-14.736h1.968v14.88c0 .32.056.544.168.672s.24.192.384.192h.168c.064 0 .152-.016.264-.048l.264 1.488c-.128.064-.28.112-.456.144s-.4.048-.672.048zm6.237 0c-.976 0-1.792-.288-2.448-.864-.64-.576-.96-1.392-.96-2.448 0-1.28.568-2.256 1.704-2.928 1.136-.688 2.952-1.168 5.448-1.44 0-.368-.04-.728-.12-1.08-.064-.352-.184-.664-.36-.936s-.424-.488-.744-.648c-.304-.176-.696-.264-1.176-.264-.672 0-1.304.128-1.896.384s-1.12.544-1.584.864l-.768-1.368c.544-.352 1.208-.688 1.992-1.008.784-.336 1.648-.504 2.592-.504 1.424 0 2.456.44 3.096 1.32.64.864.96 2.024.96 3.48v7.152h-1.632l-.168-1.392h-.072c-.56.464-1.16.864-1.8 1.2-.64.32-1.328.48-2.064.48zm.576-1.584c.56 0 1.088-.128 1.584-.384.496-.272 1.024-.664 1.584-1.176v-3.24c-.976.128-1.8.28-2.472.456-.656.176-1.192.384-1.608.624-.4.24-.696.52-.888.84-.176.304-.264.64-.264 1.008 0 .672.2 1.152.6 1.44s.888.432 1.464.432zm11.694 1.584c-.624 0-1.152-.096-1.584-.288-.416-.192-.76-.456-1.032-.792-.256-.336-.44-.744-.552-1.224s-.168-1.008-.168-1.584v-6.456h-1.728v-1.488l1.824-.12.24-3.264h1.656v3.264h3.144v1.608h-3.144v6.48c0 .72.128 1.28.384 1.68.272.384.744.576 1.416.576.208 0 .432-.032.672-.096s.456-.136.648-.216l.384 1.488c-.32.112-.672.208-1.056.288-.368.096-.736.144-1.104.144zm8.357 0c-.784 0-1.52-.136-2.208-.408-.672-.288-1.264-.688-1.776-1.2-.496-.528-.888-1.168-1.176-1.92s-.432-1.608-.432-2.568.144-1.816.432-2.568c.304-.768.696-1.416 1.176-1.944.496-.528 1.056-.928 1.68-1.2.624-.288 1.272-.432 1.944-.432.736 0 1.392.128 1.968.384.592.256 1.08.624 1.464 1.104.4.48.704 1.056.912 1.728s.312 1.424.312 2.256c0 .208-.008.416-.024.624 0 .192-.016.36-.048.504h-7.872c.08 1.248.464 2.24 1.152 2.976.704.72 1.616 1.08 2.736 1.08.56 0 1.072-.08 1.536-.24.48-.176.936-.4 1.368-.672l.696 1.296c-.512.32-1.08.6-1.704.84s-1.336.36-2.136.36zm-3.672-7.056h6.24c0-1.184-.256-2.08-.768-2.688-.496-.624-1.2-.936-2.112-.936-.416 0-.816.08-1.2.24-.368.16-.704.4-1.008.72-.304.304-.56.68-.768 1.128-.192.448-.32.96-.384 1.536zm13.418 7.056c-.832 0-1.624-.152-2.376-.456s-1.408-.688-1.968-1.152l.984-1.32c.512.416 1.032.752 1.56 1.008.544.256 1.168.384 1.872.384.768 0 1.344-.176 1.728-.528s.576-.784.576-1.296c0-.304-.08-.568-.24-.792s-.368-.416-.624-.576c-.24-.176-.52-.328-.84-.456s-.64-.256-.96-.384c-.416-.144-.832-.304-1.248-.48-.416-.192-.792-.416-1.128-.672-.32-.272-.584-.584-.792-.936s-.312-.776-.312-1.272c0-.464.088-.896.264-1.296.192-.416.456-.768.792-1.056.352-.304.776-.536 1.272-.696.496-.176 1.056-.264 1.68-.264.736 0 1.408.128 2.016.384.624.256 1.16.568 1.608.936l-.936 1.248c-.4-.304-.816-.552-1.248-.744s-.904-.288-1.416-.288c-.736 0-1.28.168-1.632.504-.336.336-.504.728-.504 1.176 0 .272.072.512.216.72.144.192.336.368.576.528.24.144.512.28.816.408.32.112.648.232.984.36.416.16.832.328 1.248.504.432.176.816.4 1.152.672.336.256.608.576.816.96.224.384.336.848.336 1.392 0 .48-.096.928-.288 1.344-.176.416-.448.784-.816 1.104-.352.32-.8.568-1.344.744-.528.192-1.136.288-1.824.288z" fill="#292929"/><path clip-rule="evenodd" d="m1 4h10v15.5c0 .5523.4477 1 1 1h10v4.5c0 .5523-.4477 1-1 1h-20c-.552284 0-1-.4477-1-1v-20c0-.55228.447715-1 1-1zm16.9191 0c.2652 0 .5196.10536.7071.29289l3.0809 3.08088c.1875.18754.2929.44189.2929.70711v9.89832h-8.25v-13.9792z" fill="#2f4ed0" fill-rule="evenodd"/></svg>